<?xml version="1.0" encoding="UTF-8" standalone="no"?>
<!-- Created with Inkscape (http://www.inkscape.org/) -->

<svg
   width="210mm"
   height="297mm"
   viewBox="0 0 210 297"
   version="1.1"
   id="svg1"
   inkscape:version="1.4.2 (f4327f4, 2025-05-13)"
   sodipodi:docname="drawing.svg"
   xmlns:inkscape="http://www.inkscape.org/namespaces/inkscape"
   xmlns:sodipodi="http://sodipodi.sourceforge.net/DTD/sodipodi-0.dtd"
   xmlns="http://www.w3.org/2000/svg"
   xmlns:svg="http://www.w3.org/2000/svg">
  <sodipodi:namedview
     id="namedview1"
     pagecolor="#ffffff"
     bordercolor="#000000"
     borderopacity="0.25"
     inkscape:showpageshadow="2"
     inkscape:pageopacity="0.0"
     inkscape:pagecheckerboard="0"
     inkscape:deskcolor="#d1d1d1"
     inkscape:document-units="mm"
     showguides="false"
     inkscape:zoom="0.12020815"
     inkscape:cx="178.85642"
     inkscape:cy="87.348485"
     inkscape:window-width="1366"
     inkscape:window-height="705"
     inkscape:window-x="-8"
     inkscape:window-y="-8"
     inkscape:window-maximized="1"
     inkscape:current-layer="layer1" />
  <defs
     id="defs1" />
  <g
     inkscape:label="Layer 1"
     inkscape:groupmode="layer"
     id="layer1">
    <g
       id="g13">
      <rect
         style="opacity:1;fill:#ffffff;stroke-width:4.35917;paint-order:fill markers stroke"
         id="rect11"
         width="836.39636"
         height="446.95258"
         x="-835.50665"
         y="-508.1543"
         ry="0.72522861" />
      <g
         id="g12"
         transform="translate(-224.70137,-347.80912)">
        <rect
           style="opacity:0;fill:#000000;stroke-width:4.07308;paint-order:fill markers stroke"
           id="rect2"
           width="82.131416"
           height="263.55194"
           x="-273.95435"
           y="-52.538372"
           ry="0.6331597" />
        <path
           id="path1"
           style="opacity:1;fill:#ff0000;stroke-width:3.96499;paint-order:fill markers stroke"
           d="m -273.64068,-136.32292 v 83.184584 c 0,0.3324 -0.26756,0.599964 -0.59996,0.599964 h 82.70399 a 82.131073,85.989586 0 0 0 -82.10403,-83.784548 z" />
        <rect
           style="opacity:0;fill:#000000;stroke-width:4.06662;paint-order:fill markers stroke"
           id="rect1"
           width="82.131416"
           height="262.71606"
           x="36.906879"
           y="95.047203"
           ry="0.63115156"
           transform="rotate(90)" />
        <path
           id="path2"
           style="opacity:1;fill:#ff0000;stroke-width:3.96499;paint-order:fill markers stroke"
           d="m -192.6071,286.6074 v -83.18458 c 0,-0.3324 0.26756,-0.59997 0.59996,-0.59997 h -82.70399 a 82.131073,85.989586 0 0 0 82.10403,83.78455 z" />
        <path
           id="path3"
           style="opacity:1;fill:#ff0000;stroke-width:3.96499;paint-order:fill markers stroke"
           d="M -357.76328,119.56488 V 36.380299 c 0,-0.3324 0.26756,-0.59997 0.59996,-0.59997 h -82.70399 a 82.131073,85.989586 0 0 0 82.10403,83.784551 z" />
        <path
           id="path4"
           style="opacity:1;fill:#ff0000;stroke-width:3.96499;paint-order:fill markers stroke"
           d="M -95.047203,119.56488 V 36.380298 c 0,-0.3324 -0.26756,-0.59997 -0.59996,-0.59997 h 82.703992 a 82.131073,85.989586 0 0 1 -82.104032,83.784552 z" />
        <path
           id="path5"
           style="opacity:1;fill:#ff0000;stroke-width:3.96499;paint-order:fill markers stroke"
           d="M -191.85031,-46.302083 V 36.8825 c 0,0.3324 -0.26756,0.599964 -0.59996,0.599964 h 82.70399 a 82.131073,85.989587 0 0 0 -82.10403,-83.784547 z" />
        <path
           id="path6"
           style="opacity:1;fill:#ff0000;stroke-width:3.66278;paint-order:fill markers stroke"
           d="m -275.03891,202.84722 v -83.18458 c 0,-0.3324 0.22833,-0.59997 0.51199,-0.59997 h -70.57725 a 70.088343,85.989586 0 0 0 70.06526,83.78455 z" />
        <path
           id="path7"
           style="opacity:1;fill:#ff0000;stroke-width:3.96499;paint-order:fill markers stroke"
           d="m -191.40718,202.82285 v -83.18458 c 0,-0.3324 -0.26756,-0.59997 -0.59996,-0.59997 h 82.70399 c -1.14212,46.61644 -37.56471,83.78453 -82.10403,83.78455 z"
           sodipodi:nodetypes="csccc" />
        <path
           id="path8"
           style="opacity:1;fill:#ff0000;stroke-width:3.96499;paint-order:fill markers stroke"
           d="M -191.85031,-46.302083 V 36.8825 c 0,0.3324 -0.26756,0.599964 -0.59996,0.599964 h 82.70399 a 82.131073,85.989587 0 0 0 -82.10403,-83.784547 z" />
        <path
           id="path9"
           style="opacity:1;fill:#ff0000;stroke-width:3.96499;paint-order:fill markers stroke"
           d="m -275.05929,-48.004218 v 83.184583 c 0,0.3324 0.26756,0.599964 0.59996,0.599964 h -82.70399 a 82.131073,85.989587 0 0 1 82.10403,-83.784547 z" />
      </g>
    </g>
    <rect
       style="opacity:0;fill:#f9f9f9;stroke-width:3.96499;paint-order:fill markers stroke"
       id="rect9"
       width="574.47223"
       height="292.73874"
       x="-781.3703"
       y="275.1304"
       ry="0.60000002" />
    <rect
       style="opacity:0;fill:#ffffff;stroke-width:3.96499;paint-order:fill markers stroke"
       id="rect10"
       width="446.81174"
       height="216.80275"
       x="-653.70984"
       y="204.69702"
       ry="0.60000002" />
  </g>
</svg>
