<?xml version="1.0" encoding="UTF-8" standalone="no"?>
<!-- Created with Inkscape (http://www.inkscape.org/) -->

<svg
   width="210mm"
   height="297mm"
   viewBox="0 0 210 297"
   version="1.1"
   id="svg1"
   inkscape:version="1.4.2 (f4327f4, 2025-05-13)"
   sodipodi:docname="وكالة التسير العقارية.svg"
   xmlns:inkscape="http://www.inkscape.org/namespaces/inkscape"
   xmlns:sodipodi="http://sodipodi.sourceforge.net/DTD/sodipodi-0.dtd"
   xmlns="http://www.w3.org/2000/svg"
   xmlns:svg="http://www.w3.org/2000/svg">
  <sodipodi:namedview
     id="namedview1"
     pagecolor="#ffffff"
     bordercolor="#000000"
     borderopacity="0.25"
     inkscape:showpageshadow="2"
     inkscape:pageopacity="0.0"
     inkscape:pagecheckerboard="0"
     inkscape:deskcolor="#d1d1d1"
     inkscape:document-units="mm"
     inkscape:zoom="0.78"
     inkscape:cx="540.38462"
     inkscape:cy="528.84615"
     inkscape:window-width="1366"
     inkscape:window-height="705"
     inkscape:window-x="-8"
     inkscape:window-y="-8"
     inkscape:window-maximized="1"
     inkscape:current-layer="layer1" />
  <defs
     id="defs1">
    <rect
       x="302.5641"
       y="652.5641"
       width="214.10256"
       height="16.666667"
       id="rect12" />
  </defs>
  <g
     inkscape:label="Layer 1"
     inkscape:groupmode="layer"
     id="layer1">
    <text
       xml:space="preserve"
       transform="scale(0.26458333)"
       id="text12"
       style="font-size:18.6667px;text-align:start;writing-mode:lr-tb;direction:ltr;white-space:pre;shape-inside:url(#rect12);opacity:0.958802;fill:#000000;stroke-width:14.9858;paint-order:fill markers stroke" />
    <g
       id="g13"
       style="fill:#d55500;fill-opacity:1">
      <path
         id="path11"
         style="opacity:0.958802;stroke-width:3.63157;paint-order:fill markers stroke;fill:#d55500;fill-opacity:1"
         d="m 103.76901,82.355459 v 88.311661 h 7.67601 V 87.629951 Z" />
      <path
         id="rect1"
         style="opacity:0.958802;stroke-width:2.49966;paint-order:fill markers stroke;fill:#d55500;fill-opacity:1"
         d="m 125.47841,128.82715 v 41.83997 h 7.67601 v -39.34104 z"
         sodipodi:nodetypes="ccccc" />
      <path
         id="path6"
         style="opacity:0.958802;stroke-width:3.22524;paint-order:fill markers stroke;fill:#d55500;fill-opacity:1"
         d="m 114.2845,101.35118 v 69.65515 h 7.67601 V 105.5114 Z" />
      <path
         id="path9"
         style="opacity:0.958802;stroke-width:3.22524;paint-order:fill markers stroke;fill:#d55500;fill-opacity:1"
         d="m 99.572689,101.01197 v 69.65515 h -7.67601 v -65.49493 z" />
      <path
         id="path10"
         style="opacity:0.958802;stroke-width:2.49966;paint-order:fill markers stroke;fill:#d55500;fill-opacity:1"
         d="m 89.396412,129.84478 v 41.83997 h -7.67601 v -39.34104 z"
         sodipodi:nodetypes="ccccc" />
    </g>
    <path
       id="path12"
       style="opacity:0.958802;fill:#aa4400;stroke-width:2.28487;paint-order:fill markers stroke"
       d="m 126.6654,183.56692 c -18.43823,19.71902 -48.363363,-2.04744 -48.363363,-2.04744 l 11.352167,2.97054 c 35.292676,9.23507 70.223286,-36.44222 37.011196,-0.9231 z"
       sodipodi:nodetypes="scss" />
    <path
       style="font-size:7.05556px;opacity:0.958802;stroke-width:3.965;paint-order:fill markers stroke;fill:#1e1d35;fill-opacity:1"
       d="m 127.43676,176.86881 q 0,0.56844 -0.4203,1.12999 -0.46854,0.62701 -1.08176,0.62701 -0.22738,0 -0.46854,-0.0517 -0.1757,-0.0379 -0.45819,-0.13091 -0.22394,-0.0792 -0.44787,-0.15503 l 0.0586,-0.12058 q 0.19292,0.0448 0.40308,0.093 0.21359,0.0517 0.3824,0.0517 0.4203,0 0.79582,-0.2136 0.29283,-0.16881 0.58567,-0.4892 0.14814,-0.16192 0.4203,-0.5271 -0.46509,0 -0.69591,-0.14814 -0.26183,-0.16881 -0.26183,-0.55466 0,-0.35485 0.16537,-0.65802 0.19292,-0.3514 0.4892,-0.3514 0.29972,0 0.43064,0.34796 0.10335,0.27216 0.10335,0.75792 z m -0.21704,-0.37551 q -0.0758,-0.33073 -0.18259,-0.4582 -0.093,-0.11025 -0.22738,-0.11025 -0.0965,0 -0.16881,0.0655 -0.0689,0.062 -0.0689,0.15848 0,0.16881 0.15158,0.25838 0.15159,0.0861 0.4961,0.0861 z m -2.83187,0.58222 h -3.02135 v -0.59945 h 2.62172 q -0.24116,-0.36518 -0.55122,-0.6339 -0.31006,-0.27216 -0.83716,-0.58566 l -0.11369,0.10679 -0.40652,-0.31006 q -0.21359,-0.17914 -0.21359,-0.27905 0,-0.59256 0.28939,-0.93017 0.26871,-0.31006 0.92673,-0.55811 l 0.97151,-0.37896 v 0.596 l -0.72002,0.24116 q -0.43064,0.14125 -0.69591,0.25838 -0.33762,0.14814 -0.33762,0.22738 0,0.0792 0.22049,0.2446 0.1378,0.10335 0.27905,0.2067 0.52365,0.39619 0.91295,0.83027 0.4203,0.46509 0.67524,0.96463 z m -2.78019,0 h -0.48232 q -0.23426,0 -0.37551,-0.18948 -0.12403,-0.16537 -0.18948,-0.49265 -0.062,-0.32729 -0.0965,-0.80616 -0.0207,-0.38929 -0.0448,-0.79926 -0.0207,-0.40996 -0.0586,-0.62012 -0.0344,-0.21359 -0.0965,-0.34795 -0.0758,-0.16537 -0.21015,-0.28939 l 0.42374,-0.66835 q 0.13436,0.41341 0.18948,0.98875 0.0345,0.35829 0.0689,1.69498 0.062,0.61323 0.17914,0.78549 0.0965,0.14469 0.21015,0.14469 h 0.48232 z m -1.6192,0 h -1.70188 v -0.59945 h 1.35393 l -0.40997,-2.92144 -0.17914,-0.0861 q 0,-0.23771 0.0413,-0.44442 0.0413,-0.21015 0.12402,-0.40652 l 0.0517,0.0379 q 0,0.19981 0.22393,0.29972 0.17225,0.0689 0.34795,0.1378 0,0.17226 -0.0276,0.36863 -0.0276,0.19637 -0.0654,0.29283 l -0.16537,-0.0551 0.40652,2.70096 z m -1.46072,0 h -0.49265 q -0.24805,0 -0.43753,-0.42375 -0.14125,-0.31695 -0.22738,-0.81649 -0.10335,0.19293 -0.26182,0.29973 -0.15848,0.10679 -0.33418,0.10679 -0.39619,0 -0.66146,-0.0517 -0.26183,-0.0551 -0.26183,-0.13781 0,-0.29628 0.38586,-0.65457 0.38585,-0.36173 0.96462,-0.63045 -0.007,-0.0276 -0.031,-0.14469 -0.0207,-0.11714 -0.0207,-0.1447 0,-0.11713 0.0792,-0.26182 0.0655,-0.11714 0.17226,-0.24116 0.0345,0.21359 0.0689,0.41341 0.0379,0.19982 0.0861,0.41341 l 0.10335,0.59256 q 0.0861,0.4892 0.15503,0.72347 0.1068,0.35829 0.22049,0.35829 h 0.49265 z m -1.20234,-1.53996 -0.0655,-0.37552 q -0.29972,0.1068 -0.47198,0.22393 -0.17225,0.11369 -0.28939,0.30317 0.0724,0.031 0.16881,0.0482 0.0965,0.0172 0.26528,0.0172 0.2067,0 0.39274,-0.21704 z m 0.32384,-2.58038 -0.25494,0.49954 -0.565,-0.28939 0.26183,-0.49954 z m -0.78549,0.32039 -0.25838,0.49265 -0.56844,-0.29283 0.26872,-0.49609 z m -3.23839,2.92145 q 0,0.2756 -0.0999,0.53399 -0.0517,0.1378 -0.22394,0.43752 l -0.062,-0.0344 q 0.0103,-0.0999 0.0172,-0.23082 0.0103,-0.13091 0.0103,-0.1757 0,-0.35829 -0.0586,-0.99908 -0.0551,-0.64423 -0.13436,-1.34358 -0.0482,-0.42375 -0.1068,-0.86472 0.0689,-0.15159 0.15503,-0.32729 0.0896,-0.1757 0.16881,-0.33073 0.0551,0.39274 0.1378,1.07487 0.0861,0.68213 0.13436,1.2299 0.062,0.68213 0.062,1.03009 z m -1.16444,0.8785 h -1.70188 v -0.59945 h 1.35392 l -0.40996,-2.92144 -0.17915,-0.0861 q 0,-0.23771 0.0413,-0.44442 0.0413,-0.21015 0.12403,-0.40652 l 0.0517,0.0379 q 0,0.19981 0.22394,0.29972 0.17225,0.0689 0.34795,0.1378 0,0.17226 -0.0276,0.36863 -0.0276,0.19637 -0.0655,0.29283 l -0.16536,-0.0551 0.40652,2.70096 z m -1.46072,0 h -1.96371 v -0.59945 h 1.71222 q 0,-0.40652 -0.0965,-0.62012 -0.0655,-0.14814 -0.32383,-0.42719 l 0.26871,-0.56155 q 0.24805,0.3135 0.31006,0.4892 0.093,0.26528 0.093,0.8785 z m -0.0207,-3.40376 -0.25494,0.49954 -0.56499,-0.28939 0.26182,-0.49954 z m -0.78548,0.32039 -0.25839,0.49265 -0.56844,-0.29283 0.26872,-0.49609 z m -0.9164,3.08337 h -0.26527 q -0.22049,0 -0.37896,-0.0586 -0.15848,-0.062 -0.28939,-0.17225 -0.16192,0.12746 -0.2825,0.16881 -0.1757,0.062 -0.48231,0.062 h -0.22393 q -0.17915,0 -0.35829,-0.0689 -0.11714,-0.0448 -0.28939,-0.14813 -0.16537,0.12402 -0.30317,0.17225 -0.1378,0.0448 -0.44786,0.0448 h -0.66491 v -0.59945 h 0.66491 q 0.27905,0 0.39963,-0.0482 0.19981,-0.0792 0.19981,-0.31695 0,-0.0999 -0.0103,-0.19982 -0.0103,-0.0999 -0.0379,-0.22393 l 0.14125,-0.2067 q 0.0965,0.31695 0.15848,0.46164 0.11024,0.25149 0.24115,0.37896 0.15848,0.15503 0.37896,0.15503 h 0.23082 q 0.25839,0 0.38241,-0.0792 0.1378,-0.0896 0.1378,-0.28594 0,-0.1068 -0.0138,-0.20671 -0.0138,-0.0999 -0.0379,-0.21704 l 0.14469,-0.2067 0.0724,0.32384 q 0.093,0.3824 0.22738,0.53054 0.11713,0.13091 0.31694,0.13091 0.093,0 0.14814,-0.0551 0.0586,-0.0586 0.0586,-0.14814 0,-0.19292 -0.14125,-0.40652 -0.0241,-0.0345 -0.16881,-0.22393 l 0.22393,-0.37551 q 0.14125,0.21359 0.19293,0.36862 0.0758,0.23427 0.0758,0.62356 z m -3.74482,0 h -1.96371 v -0.59945 h 1.71222 q 0,-0.40652 -0.0965,-0.62012 -0.0654,-0.14814 -0.32384,-0.42719 l 0.26872,-0.56155 q 0.24805,0.3135 0.31006,0.4892 0.093,0.26528 0.093,0.8785 z m -0.031,0.68213 -0.25493,0.49954 -0.565,-0.28939 0.26183,-0.49954 z m -0.78548,0.32039 -0.25838,0.49265 -0.56844,-0.29283 0.26871,-0.4961 z m -0.90606,-1.00252 q 0,0.37896 -0.32384,0.78548 -0.2825,0.35829 -0.7028,0.61667 -0.39963,0.24805 -0.65801,0.24805 -0.23771,0 -0.51332,-0.0689 -0.21015,-0.0517 -0.50299,-0.16192 -0.24804,-0.093 -0.49264,-0.18604 l 0.0586,-0.1378 q 0.22738,0.0448 0.47198,0.0896 0.24805,0.0482 0.44786,0.0482 0.44098,0 0.91984,-0.2825 0.43409,-0.25838 0.7407,-0.65112 0.30661,-0.39619 0.30661,-0.71313 0,-0.27217 -0.15847,-0.57189 -0.12747,-0.24116 -0.35829,-0.4961 l 0.19637,-0.54088 q 0.2825,0.26183 0.41686,0.52366 0.15158,0.29628 0.15158,0.66146 z m -5.70508,-0.8785 q 0,0.2756 -0.09991,0.53399 -0.05168,0.1378 -0.223931,0.43752 l -0.06201,-0.0344 q 0.01034,-0.0999 0.01723,-0.23082 0.01034,-0.13091 0.01034,-0.1757 0,-0.35829 -0.05857,-0.99908 -0.05512,-0.64423 -0.134359,-1.34358 -0.04823,-0.42375 -0.106798,-0.86472 0.0689,-0.15159 0.15503,-0.32729 0.08957,-0.1757 0.168809,-0.33073 0.05512,0.39274 0.137804,1.07487 0.08613,0.68213 0.134359,1.2299 0.06201,0.68213 0.06201,1.03009 z m -1.164444,0.8785 h -1.701878 v -0.59945 h 1.353923 l -0.409966,-2.92144 -0.179145,-0.0861 q 0,-0.23771 0.04134,-0.44442 0.04134,-0.21015 0.124023,-0.40652 l 0.05168,0.0379 q 0,0.19981 0.223931,0.29972 0.172255,0.0689 0.347955,0.1378 0,0.17226 -0.02756,0.36863 -0.02756,0.19637 -0.06546,0.29283 l -0.165364,-0.0551 0.406521,2.70096 z m -1.460722,0 h -0.506429 q -0.223931,0 -0.454753,-0.1068 -0.275608,-0.12747 -0.399631,-0.35485 -0.230822,0.20671 -0.5271,0.3204 -0.361735,0.14125 -0.823379,0.14125 h -0.310058 v -0.59945 h 0.310058 q 0.289389,0 0.537436,-0.062 0.282498,-0.0724 0.55466,-0.23082 l -0.144694,-0.18604 q -0.110243,-0.13091 -0.248047,-0.13091 -0.06201,0 -0.110243,0.0241 -0.04823,0.0207 -0.106798,0.0965 h -0.07235 v -0.20326 q 0,-0.37897 0.199816,-0.52021 0.18259,-0.12747 0.633898,-0.12747 0.389296,0 0.633898,0.10335 0.320394,0.13436 0.320394,0.41341 0,0.14814 -0.127469,0.30662 -0.09302,0.11713 -0.341064,0.32383 0.05512,0.0827 0.210151,0.13781 0.158474,0.0551 0.265272,0.0551 h 0.506429 z m -2.928332,-3.83784 -0.292834,0.46164 -0.430637,-0.2825 0.296279,-0.45819 z m -0.788928,0.2067 -0.272162,0.46854 -0.423747,-0.27906 0.285943,-0.46164 z m 0.937067,3.63114 h -2.09462 v -0.59945 h 1.181669 q 0.213596,0 0.361735,-0.0138 0.151585,-0.0172 0.327285,-0.0689 -0.592557,-0.0861 -0.768257,-0.16192 -0.396186,-0.17226 -0.396186,-0.58567 0,-0.36173 0.18948,-0.68213 0.213596,-0.36173 0.52021,-0.36173 0.3514,0 0.53399,0.44786 0.144694,0.35484 0.144694,0.83716 z m -0.310059,-1.20234 q -0.07924,-0.27561 -0.151584,-0.40997 -0.141249,-0.25838 -0.341065,-0.25838 -0.09646,0 -0.165365,0.0758 -0.0689,0.0758 -0.0689,0.17915 0,0.26182 0.272163,0.3514 0.09646,0.031 0.454753,0.062 z m -1.543404,1.20234 h -0.482313 q -0.234267,0 -0.375516,-0.18948 -0.124024,-0.16537 -0.18948,-0.49265 -0.06201,-0.32729 -0.09646,-0.80616 -0.02067,-0.38929 -0.04479,-0.79926 -0.02067,-0.40996 -0.05857,-0.62012 -0.03445,-0.21359 -0.09646,-0.34795 -0.07579,-0.16537 -0.210151,-0.28939 l 0.423747,-0.66835 q 0.134359,0.41341 0.189481,0.98875 0.03445,0.35829 0.0689,1.69498 0.06201,0.61323 0.179145,0.78549 0.09646,0.14469 0.210151,0.14469 h 0.482313 z m -1.619195,0 q 0,0.37896 -0.32384,0.78548 -0.282498,0.35829 -0.7028,0.61667 -0.399631,0.24805 -0.658013,0.24805 -0.237712,0 -0.51332,-0.0689 -0.210151,-0.0517 -0.502984,-0.16192 -0.248047,-0.093 -0.492649,-0.18604 l 0.05857,-0.1378 q 0.227376,0.0448 0.471978,0.0896 0.248047,0.0482 0.447863,0.0482 0.440972,0 0.919841,-0.2825 0.434082,-0.25838 0.740696,-0.65112 0.306614,-0.39619 0.306614,-0.71313 0,-0.27217 -0.158475,-0.57189 -0.127469,-0.24116 -0.35829,-0.4961 l 0.19637,-0.54088 q 0.282498,0.26183 0.416857,0.52366 0.151585,0.29628 0.151585,0.66146 z m -3.448544,0 h -1.963705 v -0.59945 h 1.712213 q 0,-0.40652 -0.09646,-0.62012 -0.06546,-0.14814 -0.323839,-0.42719 l 0.268718,-0.56155 q 0.248047,0.3135 0.310059,0.4892 0.09302,0.26528 0.09302,0.8785 z m -0.03101,0.68213 -0.254937,0.49954 -0.564996,-0.28939 0.261828,-0.49954 z m -0.785482,0.32039 -0.258382,0.49265 -0.568441,-0.29283 0.268717,-0.4961 z m -0.90606,-1.00252 h -0.492649 q -0.248047,0 -0.437528,-0.42375 -0.141249,-0.31695 -0.227376,-0.81649 -0.103353,0.19293 -0.261828,0.29973 -0.158474,0.10679 -0.334174,0.10679 -0.396186,0 -0.661459,-0.0517 -0.261827,-0.0551 -0.261827,-0.13781 0,-0.29628 0.385851,-0.65457 0.385851,-0.36173 0.964627,-0.63045 -0.0069,-0.0276 -0.03101,-0.14469 -0.02067,-0.11714 -0.02067,-0.1447 0,-0.11713 0.07924,-0.26182 0.06546,-0.11714 0.172255,-0.24116 0.03445,0.21359 0.0689,0.41341 0.0379,0.19982 0.08613,0.41341 l 0.103353,0.59256 q 0.08613,0.4892 0.155029,0.72347 0.106798,0.35829 0.220487,0.35829 h 0.492649 z m -1.20234,-1.53996 -0.06546,-0.37552 q -0.299724,0.1068 -0.471979,0.22393 -0.172255,0.11369 -0.289388,0.30317 0.07235,0.031 0.16881,0.0482 0.09646,0.0172 0.265272,0.0172 0.206706,0 0.392741,-0.21704 z m 0.32384,-2.58038 -0.254938,0.49954 -0.564996,-0.28939 0.261828,-0.49954 z m -0.785483,0.32039 -0.258382,0.49265 -0.568441,-0.29283 0.268718,-0.49609 z"
       id="text13"
       aria-label="وكالة التسير العقارية" />
  </g>
</svg>
